<svg width="90" height="90" viewBox="0 0 90 90" fill="none" xmlns="http://www.w3.org/2000/svg">
<path d="M56.25 33.75C46.4261 23.9261 45 0 45 0C45 0 43.5739 23.9261 33.75 33.75C23.9261 43.5739 0 45 0 45C0 45 23.9261 46.4261 33.75 56.25C43.5739 66.0739 45 90 45 90C45 90 46.4261 66.0739 56.25 56.25C66.0739 46.4261 90 45 90 45C90 45 66.0739 43.5739 56.25 33.75Z" fill="#979797"/>
<path d="M44.9999 29.0902C31.1068 29.0902 13.1801 13.1803 13.1801 13.1803C13.1801 13.1803 29.09 31.1069 29.09 45.0001C29.09 58.8932 13.1801 76.8199 13.1801 76.8199C13.1801 76.8199 31.1068 60.91 44.9999 60.91C58.8931 60.91 76.8197 76.8199 76.8197 76.8199C76.8197 76.8199 60.9098 58.8932 60.9098 45.0001C60.9098 31.1069 76.8197 13.1803 76.8197 13.1803C76.8197 13.1803 58.8931 29.0902 44.9999 29.0902Z" fill="#D6D6D6"/>
</svg>
