<svg width="393" height="90" viewBox="0 0 393 90" fill="none" xmlns="http://www.w3.org/2000/svg">
<path d="M104.905 73.0106C99.6549 72.5563 99.1268 70.6549 101.028 64.4225L103.077 57.5775H120.116L122.556 65.9437C124.373 72.1761 123.697 72.5563 117.993 73.0106V74.4577H137.081V73.0106C132.285 72.4824 132.285 72.4085 130.31 65.9437L115.479 16.6549H113.504L98.3662 64.4225C96.3169 70.8873 94.6373 72.6303 90 73.0106V74.4577H104.905V73.0106ZM103.69 55.6761L111.75 29.1303L119.514 55.6761H103.69ZM146.43 26.9225C149.324 26.9225 151.532 24.7148 151.532 21.831C151.532 18.9366 149.324 16.6549 146.43 16.6549C143.546 16.6549 141.264 18.9366 141.264 21.831C141.264 24.7148 143.546 26.9225 146.43 26.9225ZM155.937 73.0106C150.539 72.4824 150.232 72.4085 150.232 64.4225V33.007L149.63 32.6268C145.521 36.1972 142.025 37.9507 136.088 37.9507V39.3979C141.412 39.3979 143.239 39.9261 143.239 44.8697V64.4225C143.239 72.4085 143.007 72.5563 136.849 73.0106V74.4577H155.937V73.0106ZM198.074 74.4577V73.0106C192.676 72.4824 192.37 72.4085 192.37 64.4225V13.3803L191.768 13C187.658 16.581 184.162 18.3239 178.225 18.3239V19.7711C183.549 19.7711 185.377 20.3099 185.377 25.2535V34.7606C183.475 33.6197 180.359 32.6268 177.158 32.6268C168.032 32.6268 159.739 41.0669 159.739 54.9894C159.739 67.6127 165.75 75.2183 173.514 75.2183C178.299 75.2183 181.954 72.25 185.377 67.3803V74.4577H198.074ZM175.796 71.7218C170.62 71.7218 167.271 65.7852 167.271 54.0704C167.271 41.0669 170.926 35.0563 176.778 35.0563C180.655 35.0563 185.377 37.7183 185.377 45.4824V60.8416C183.697 68.1408 179.82 71.7218 175.796 71.7218ZM217.468 75.2183C224.387 75.2183 229.257 70.3486 232.532 66.3979L231.613 65.1831C228.423 68.5211 224.472 70.8873 220.817 70.8873C213.518 70.8873 209.408 61.2958 209.335 50.5739L231.465 48.2923C231.465 36.1972 224.472 32.6268 218.387 32.6268C208.12 32.6268 201.877 42.2817 201.877 54.9155C201.877 68.3732 209.176 75.2183 217.468 75.2183ZM217.394 34.8345C219.676 34.8345 223.785 36.0493 224.239 47.0035H209.482C210.095 39.8521 212.757 34.8345 217.394 34.8345ZM254.588 73.0106C249.19 72.4824 248.884 72.4085 248.884 64.4225V48.0704C248.884 40.993 253.373 36.8838 257.324 36.8838C260.599 36.8838 264.095 39.1655 264.095 49.0528V64.4225C264.095 72.4085 263.863 72.5563 258.465 73.0106V74.4577H277.553V73.0106C271.394 72.4824 271.088 72.4085 271.088 64.4225V45.4824C271.088 36.8099 268.426 32.6268 262.194 32.6268C257.937 32.6268 255.349 34.5282 248.884 39.2394V33.007L248.271 32.6268C244.162 36.1972 240.666 37.9507 234.739 37.9507V39.3979C240.063 39.3979 241.88 39.9261 241.88 44.8697V64.4225C241.88 72.4085 241.658 72.5563 235.5 73.0106V74.4577H254.588V73.0106ZM310.711 75.2183C320.07 75.2183 326.768 69.0599 326.768 60.007C326.768 42.5141 303.106 42.5141 303.106 29.2042C303.106 24.1866 306.38 20.0775 310.711 20.0775C315.961 20.0775 319.838 24.7148 322.5 34.0739L324.18 33.6197L322.5 15.7465L320.831 15.8944C320.451 17.9437 319.764 18.6303 318.549 18.6303C317.335 18.6303 315.359 17.4155 311.704 17.4155C303.486 17.4155 296.873 23.8803 296.873 32.7007C296.873 49.1268 320.757 49.8134 320.757 63.3556C320.757 68.7535 316.796 72.5563 311.25 72.5563C304.785 72.5563 300.528 67.5387 298.014 56.9648L296.345 57.419L297.56 76.5916H299.229C299.916 74.1514 300.824 73.3908 301.891 73.3908C303.338 73.3908 305.62 75.2183 310.711 75.2183ZM348.898 73.0106C343.5 72.4824 343.194 72.4085 343.194 64.4225V48.0704C343.194 40.993 347.683 36.8838 351.634 36.8838C354.908 36.8838 358.405 39.1655 358.405 49.0528V64.4225C358.405 72.4085 358.173 72.5563 352.775 73.0106V74.4577H371.863V73.0106C365.704 72.4824 365.398 72.4085 365.398 64.4225V45.4824C365.398 36.8099 362.736 32.6268 356.504 32.6268C352.246 32.6268 349.658 34.5282 343.194 39.2394V13.3803L342.581 13C338.472 16.581 334.975 18.3239 329.049 18.3239V19.7711C334.373 19.7711 336.19 20.3099 336.19 25.2535V64.4225C336.19 72.4085 335.968 72.5563 329.81 73.0106V74.4577H348.898V73.0106ZM382.965 26.9225C385.859 26.9225 388.067 24.7148 388.067 21.831C388.067 18.9366 385.859 16.6549 382.965 16.6549C380.081 16.6549 377.799 18.9366 377.799 21.831C377.799 24.7148 380.081 26.9225 382.965 26.9225ZM392.472 73.0106C387.074 72.4824 386.768 72.4085 386.768 64.4225V33.007L386.166 32.6268C382.056 36.1972 378.56 37.9507 372.623 37.9507V39.3979C377.947 39.3979 379.775 39.9261 379.775 44.8697V64.4225C379.775 72.4085 379.542 72.5563 373.384 73.0106V74.4577H392.472V73.0106Z" fill="#414141"/>
<path d="M56.25 33.75C46.4261 23.9261 45 0 45 0C45 0 43.5739 23.9261 33.75 33.75C23.9261 43.5739 0 45 0 45C0 45 23.9261 46.4261 33.75 56.25C43.5739 66.0739 45 90 45 90C45 90 46.4261 66.0739 56.25 56.25C66.0739 46.4261 90 45 90 45C90 45 66.0739 43.5739 56.25 33.75Z" fill="#979797"/>
<path d="M44.9999 29.0902C31.1068 29.0902 13.1801 13.1803 13.1801 13.1803C13.1801 13.1803 29.09 31.1069 29.09 45.0001C29.09 58.8932 13.1801 76.8199 13.1801 76.8199C13.1801 76.8199 31.1068 60.91 44.9999 60.91C58.8931 60.91 76.8197 76.8199 76.8197 76.8199C76.8197 76.8199 60.9098 58.8932 60.9098 45.0001C60.9098 31.1069 76.8197 13.1803 76.8197 13.1803C76.8197 13.1803 58.8931 29.0902 44.9999 29.0902Z" fill="#D6D6D6"/>
</svg>
