<svg width="4" height="4" viewBox="0 0 4 4" fill="none" xmlns="http://www.w3.org/2000/svg">
<path d="M2.5 1.5C2.06338 1.06338 2 0 2 0C2 0 1.93662 1.06338 1.5 1.5C1.06338 1.93662 0 2 0 2C0 2 1.06338 2.06338 1.5 2.5C1.93662 2.93662 2 4 2 4C2 4 2.06338 2.93662 2.5 2.5C2.93662 2.06338 4 2 4 2C4 2 2.93662 1.93662 2.5 1.5Z" fill="#98A000"/>
<path d="M1.99997 1.29289C1.38249 1.29289 0.585754 0.585785 0.585754 0.585785C0.585754 0.585785 1.29286 1.38253 1.29286 2C1.29286 2.61747 0.585754 3.41421 0.585754 3.41421C0.585754 3.41421 1.38249 2.70711 1.99997 2.70711C2.61744 2.70711 3.41418 3.41421 3.41418 3.41421C3.41418 3.41421 2.70707 2.61747 2.70707 2C2.70707 1.38253 3.41418 0.585785 3.41418 0.585785C3.41418 0.585785 2.61744 1.29289 1.99997 1.29289Z" fill="#D6E155"/>
</svg>
